<svg xmlns="http://www.w3.org/2000/svg" viewBox="-5.00 24.90 558.60 81.10" height="48" role="img" aria-label="BACKEND">
  <path d="M50.8 100L2.9 100L2.9 30.9L39.5 30.9Q56.8 30.9 64.6 35.9Q72.4 40.9 72.4 52L72.4 52Q72.4 55.9 71.4 59.2Q70.4 62.5 69.4 63.9L69.4 63.9L68.4 65.3Q71.8 67 73.2 73.6L73.2 73.6Q73.8 76.3 73.8 79.8L73.8 79.8Q73.8 89.2 68.05 94.6Q62.3 100 50.8 100L50.8 100M37.3 65.4L43 65.4L43 60.2Q43 58.9 42.2 58.15Q41.4 57.4 40.2 57.4L40.2 57.4L37.3 57.4L37.3 65.4M45.8 70.3L45.8 70.3L37.3 70.3L37.3 76L45.8 76Q46.9 76 47.75 75.15Q48.6 74.3 48.6 73.1Q48.6 71.9 47.8 71.1Q47 70.3 45.8 70.3 M154.6 100L121.4 100L120.8 89.3L114.7 89.3L114.1 100L82.6 100Q83.6 83.6 86.7 66.35Q89.8 49.1 92.4 40L92.4 40L94.9 30.9L142.3 30.9Q143.4 34.5 145.1 40.9Q146.8 47.3 150.1 65.45Q153.4 83.6 154.6 100L154.6 100M119.4 64.5L116.2 64.5L115.4 80.1L120.1 80.1L119.4 64.5 M203 62.8L203 62.8L203 68.3Q205 68.5 210 68.5L210 68.5Q219.4 68.5 226.8 67.9L226.8 67.9L229.2 67.7L229.2 97.6Q219.5 101 201.65 101Q183.8 101 174.35 91.9Q164.9 82.8 164.9 64.85Q164.9 46.9 174.2 38.4Q183.5 29.9 201.9 29.9L201.9 29.9Q209.6 29.9 216.45 30.8Q223.3 31.7 226.2 32.6L226.2 32.6L229.2 33.5L229.2 64.3Q220.5 62.8 203 62.8 M277.6 81L275.4 81L275.4 100L241 100L241 30.9L275.4 30.9L275.4 62.1L277.6 62.1L281.9 30.9L316.9 30.9L304.7 65.4L316.9 100L281.7 100L277.6 81 M327.2 100L327.2 30.9L383.2 30.9L383.2 60L361.6 60L361.6 64L383.2 64L383.2 70.3L361.6 70.3L361.6 74.3L384.1 74.3L384.1 100L327.2 100 M395.8 100L395.8 30.9L426.4 30.9L432.7 51.5L432.7 30.9L463.5 30.9L463.5 100L432.7 100L427.4 79.8L427.4 100L395.8 100 M475.3 100L475.3 30.9L511.4 30.9Q528.1 30.9 536.95 38.9Q545.8 46.9 545.8 65L545.8 65Q545.8 100 510 100L510 100L475.3 100M511.7 60L508.9 60L508.9 77.3L511.7 77.3Q512.9 77.3 513.75 76.5Q514.6 75.7 514.6 74.4L514.6 74.4L514.6 62.8Q514.6 61.6 513.75 60.8Q512.9 60 511.7 60L511.7 60" fill="#DCA548"/>
</svg>
