<svg xmlns="http://www.w3.org/2000/svg" viewBox="53.05 24.90 442.60 167.91" height="64" role="img" aria-label="BACKEND — portfolio-api">
  <defs>
    <g id="script">
      <path d="M66.98 171.41L59.45 166.58Q59.70 165.99 60.20 164.92Q60.71 163.85 61.59 161.94Q62.46 160.03 63.72 157.15Q64.98 154.26 66.70 150.01Q68.41 145.75 70.67 140.00Q72.93 134.24 75.76 126.64L75.76 126.64Q76.01 125.98 76.39 124.98Q76.78 123.98 77.23 122.81Q77.69 121.64 78.18 120.38Q78.67 119.12 79.10 117.95Q79.54 116.78 79.91 115.76Q80.28 114.75 80.52 114.08L80.52 114.08Q80.91 112.96 81.75 112.54Q82.59 112.12 83.60 112.12L83.60 112.12Q84.62 112.12 85.67 112.37Q86.72 112.61 87.63 112.78L87.63 112.78Q89.83 112.16 91.72 112.16L91.72 112.16Q94.52 112.16 96.64 113.36Q98.76 114.57 100.17 116.53Q101.59 118.49 102.31 120.99Q103.03 123.50 103.03 126.09L103.03 126.09Q103.03 127.87 102.64 129.76Q102.26 131.65 101.40 133.49Q100.54 135.32 99.18 136.99Q97.81 138.65 95.89 139.91L95.89 139.91Q98.09 139.63 100.24 138.47Q102.40 137.32 104.57 135.43Q106.74 133.54 108.94 130.99Q111.15 128.43 113.46 125.35L113.46 125.35Q114.58 125.53 115.31 126.30Q116.05 127.06 116.05 128.43L116.05 128.43Q116.05 129.38 115.64 130.56Q115.24 131.75 114.31 133.22Q113.39 134.69 111.92 136.39Q110.45 138.09 108.31 140.02L108.31 140.02Q105.16 142.85 102.05 144.56Q98.93 146.28 96.13 146.28L96.13 146.28Q94.66 146.28 93.37 145.77Q92.07 145.27 90.95 144.15L90.95 144.15Q89.48 145.06 87.82 145.46Q86.16 145.86 84.44 145.86L84.44 145.86Q82.66 145.86 80.91 145.49Q79.16 145.13 77.55 144.53L77.55 144.53Q75.20 151.53 72.47 158.32Q69.74 165.11 66.98 171.41L66.98 171.41M93.30 131.58L93.30 131.58Q93.86 130.56 94.17 129.31Q94.49 128.05 94.49 126.82L94.49 126.82Q94.49 125.66 94.21 124.63Q93.93 123.60 93.35 122.81Q92.77 122.03 91.84 121.55Q90.92 121.08 89.62 121.08L89.62 121.08Q88.99 121.08 88.59 121.08Q88.19 121.08 87.84 121.13Q87.49 121.19 87.08 121.27Q86.68 121.36 86.05 121.53L86.05 121.53Q85.21 123.81 84.42 125.66Q83.64 127.52 82.90 129.25Q82.17 130.99 81.47 132.75Q80.77 134.52 80.07 136.66L80.07 136.66Q81.85 137.60 83.99 137.60L83.99 137.60Q85.25 137.60 86.54 137.25Q87.84 136.90 89.04 136.16Q90.25 135.43 91.34 134.29Q92.42 133.16 93.30 131.58"/>
      <path d="M144.08 125.45L147.76 129.16Q147.23 130.50 146.27 131.62Q145.31 132.74 144.10 133.54Q142.89 134.34 141.56 134.78Q140.23 135.22 138.97 135.22L138.97 135.22Q137.33 135.22 136.10 134.45L136.10 134.45Q135.09 136.87 133.77 138.77Q132.46 140.68 130.83 142.24Q129.21 143.80 127.30 145.09Q125.39 146.38 123.26 147.57L123.26 147.57Q122.94 147.75 122.45 147.75L122.45 147.75Q121.65 147.75 120.56 147.26Q119.48 146.77 118.27 146.00Q117.06 145.23 115.84 144.28Q114.61 143.34 113.53 142.43Q112.44 141.52 111.57 140.75Q110.69 139.98 110.20 139.56L110.20 139.56Q110.10 139.03 109.99 138.39Q109.89 137.74 109.82 137.09Q109.75 136.44 109.71 135.88Q109.68 135.32 109.68 135.01L109.68 135.01Q109.68 133.22 110.27 131.34Q110.87 129.44 111.79 127.64Q112.72 125.84 113.86 124.18Q115.00 122.52 116.08 121.22L116.08 121.22Q116.96 120.06 118.44 118.82Q119.93 117.58 121.70 116.58Q123.47 115.59 125.34 114.94Q127.21 114.29 128.86 114.29L128.86 114.29Q130.64 114.29 132.30 115.34Q133.97 116.39 135.26 117.95Q136.56 119.50 137.34 121.29Q138.13 123.08 138.13 124.58L138.13 124.58Q138.13 124.89 138.10 125.30Q138.06 125.70 138.01 126.10Q137.96 126.50 137.87 126.89Q137.78 127.28 137.68 127.52L137.68 127.52Q137.82 127.63 137.90 127.68Q137.99 127.73 138.13 127.78Q138.27 127.84 138.52 127.85Q138.76 127.87 139.25 127.87L139.25 127.87Q139.78 127.87 140.34 127.82Q140.90 127.77 141.51 127.52Q142.12 127.28 142.75 126.78Q143.38 126.30 144.08 125.45L144.08 125.45M128.68 124.09L128.68 124.09Q128.19 123.78 127.70 123.78L127.70 123.78Q127.28 123.78 126.88 123.98Q126.48 124.19 126.16 124.51L126.16 124.51Q124.87 125.88 123.73 127.41Q122.59 128.96 121.75 130.55Q120.91 132.14 120.42 133.72Q119.93 135.29 119.93 136.69L119.93 136.69Q119.93 137.07 120.21 137.32Q120.49 137.56 120.88 137.56L120.88 137.56Q121.44 137.56 122.28 137.07Q123.12 136.59 123.99 135.87Q124.87 135.15 125.69 134.34Q126.51 133.54 127.04 132.91L127.04 132.91Q127.95 131.82 128.65 130.72Q129.35 129.62 129.98 128.40L129.98 128.40Q129.42 127.94 129.15 127.43Q128.89 126.92 128.79 126.38Q128.68 125.84 128.70 125.26Q128.72 124.69 128.68 124.09"/>
      <path d="M143.14 131.34L141.95 127.97Q142.16 127.38 142.66 126.77Q143.17 126.16 143.52 125.63L143.52 125.63Q143.87 125.07 144.03 124.19Q144.19 123.32 144.26 122.27Q144.33 121.22 144.36 120.12Q144.40 119.02 144.50 118.02Q144.61 117.02 144.80 116.22Q144.99 115.41 145.41 114.99L145.41 114.99Q146.04 114.78 146.57 114.78L146.57 114.78Q147.34 114.78 147.88 115.16Q148.42 115.55 148.98 116.02Q149.54 116.50 150.17 116.88Q150.80 117.27 151.75 117.27L151.75 117.27Q155.04 117.27 158.13 116.55Q161.23 115.83 163.89 114.15L163.89 114.15Q165.36 113.24 166.90 111.96Q168.44 110.69 169.77 109.56L169.77 109.56Q170.05 109.35 170.42 109.27Q170.79 109.18 171.07 109.07L171.07 109.07Q171.66 109.46 172.26 110.23Q172.85 111.00 173.31 111.91Q173.76 112.82 174.04 113.69Q174.32 114.57 174.32 115.16L174.32 115.16Q174.32 115.80 173.45 116.04L173.45 116.04Q172.61 116.32 171.66 117.18Q170.72 118.03 169.72 119.26Q168.72 120.48 167.72 121.92Q166.73 123.36 165.82 124.77Q164.91 126.19 164.12 127.48Q163.33 128.78 162.77 129.66L162.77 129.66Q161.44 131.75 160.50 133.98Q159.55 136.20 159.55 138.51L159.55 138.51Q159.55 140.19 159.83 140.84Q160.11 141.49 160.46 141.49L160.46 141.49Q161.27 141.49 162.51 140.80Q163.75 140.12 165.20 139.02Q166.66 137.91 168.21 136.53Q169.77 135.15 171.22 133.78Q172.68 132.42 173.90 131.18Q175.13 129.94 175.90 129.09L175.90 129.09Q177.09 127.84 177.79 126.94Q178.49 126.05 178.63 125.91L178.63 125.91Q179.05 125.49 179.66 125.63Q180.27 125.77 180.87 126.17Q181.46 126.58 181.88 127.08Q182.30 127.59 182.30 127.94L182.30 127.94Q182.30 128.57 182.04 129.29Q181.78 130.00 181.34 130.81Q180.90 131.62 180.34 132.47Q179.78 133.33 179.19 134.17L179.19 134.17Q177.86 136.06 176.53 138.18Q175.20 140.30 173.53 142.43Q171.87 144.56 169.75 146.59Q167.64 148.63 164.73 150.34L164.73 150.34Q163.09 149.92 161.34 149.25Q159.59 148.59 157.89 147.77Q156.19 146.94 154.60 145.98Q153.01 145.02 151.68 144.00L151.68 144.00Q149.37 142.25 149.37 139.25L149.37 139.25Q149.37 137.25 150.07 134.96Q150.77 132.66 151.75 130.50Q152.73 128.32 153.78 126.50Q154.83 124.69 155.49 123.64L155.49 123.64Q154.83 124.06 154.09 124.25Q153.36 124.44 152.62 124.44L152.62 124.44Q151.71 124.44 150.91 124.16Q150.10 123.88 149.61 123.36L149.61 123.36Q149.40 124.61 148.86 126.09Q148.32 127.56 147.55 128.80Q146.78 130.04 145.83 130.86Q144.89 131.69 143.91 131.69L143.91 131.69Q143.38 131.69 143.14 131.34L143.14 131.34"/>
      <path d="M212.86 110.62L211.81 113.94Q210.72 114.50 208.87 115.01Q207.01 115.52 205.03 115.95Q203.06 116.39 201.29 116.70Q199.52 117.02 198.58 117.19L198.58 117.19Q197.39 117.41 196.60 117.51Q195.81 117.61 195.29 117.70Q194.76 117.79 194.41 117.98Q194.06 118.17 193.73 118.54Q193.40 118.91 193.05 119.58Q192.70 120.24 192.17 121.29L192.17 121.29Q191.65 122.38 190.77 124.30Q189.90 126.22 189.06 128.47Q188.22 130.71 187.62 133.01Q187.03 135.32 187.03 137.18L187.03 137.18Q187.03 137.99 187.17 138.69Q187.31 139.38 187.66 139.91L187.66 139.91Q188.74 139.91 190.28 139.28Q191.82 138.65 193.61 137.58Q195.39 136.51 197.28 135.12Q199.17 133.72 200.92 132.18Q202.67 130.63 204.18 129.06Q205.68 127.48 206.70 126.09L206.70 126.09L211.32 128.92Q210.51 130.60 209.15 132.68Q207.78 134.76 206.08 136.88Q204.39 139.00 202.43 141.01Q200.47 143.03 198.47 144.58Q196.48 146.14 194.55 147.07Q192.63 148.00 190.98 147.96L190.98 147.96Q189.79 147.54 188.22 147.10Q186.64 146.66 184.94 146.10Q183.25 145.55 181.60 144.84Q179.96 144.15 178.66 143.20Q177.37 142.25 176.56 141.01Q175.76 139.77 175.76 138.19L175.76 138.19Q175.76 133.78 177.09 128.99Q178.42 124.19 181.18 119.75L181.18 119.75Q180.34 119.86 179.13 120.06Q177.93 120.28 176.56 120.50Q175.20 120.73 173.81 120.96Q172.43 121.19 171.22 121.34Q170.02 121.50 169.11 121.55Q168.20 121.61 167.85 121.47L167.85 121.47Q166.55 121.05 166.53 120.50Q166.52 119.96 167.32 119.38Q168.13 118.81 169.53 118.23Q170.93 117.65 172.50 117.14Q174.08 116.63 175.58 116.25Q177.09 115.86 178.07 115.66L178.07 115.66Q180.17 115.23 181.32 114.95Q182.48 114.67 183.18 114.25Q183.88 113.84 184.40 113.15Q184.93 112.47 185.77 111.25L185.77 111.25Q186.26 110.55 186.96 109.37Q187.66 108.20 188.50 106.85Q189.34 105.50 190.30 104.14Q191.26 102.78 192.24 101.69Q193.22 100.60 194.20 99.91Q195.18 99.20 196.09 99.20L196.09 99.20Q198.16 99.20 199.82 99.91Q201.48 100.60 203.09 101.83L203.09 101.83Q201.20 104.49 199.17 107.25Q197.14 110.02 195.67 113.03L195.67 113.03Q196.65 112.96 198.02 112.78Q199.38 112.61 200.96 112.38Q202.53 112.16 204.21 111.89Q205.89 111.63 207.47 111.38Q209.04 111.14 210.44 110.93Q211.84 110.72 212.86 110.62L212.86 110.62"/>
      <path d="M235.92 125.70L236.97 127.03Q237.36 127.52 237.53 128.12Q237.71 128.71 237.71 129.27L237.71 129.27Q237.71 130.43 237.16 131.47Q236.62 132.53 236.13 133.12L236.13 133.12Q233.96 135.57 231.70 137.02Q229.45 138.47 227.17 139.25Q224.90 140.02 222.67 140.26Q220.45 140.50 218.35 140.50L218.35 140.50L217.83 140.50Q216.32 144.78 214.92 148.69Q213.52 152.62 212.12 156.32Q210.72 160.03 209.22 163.55Q207.71 167.07 206.01 170.57Q204.32 174.07 202.34 177.61Q200.36 181.14 197.98 184.81L197.98 184.81Q197.77 184.81 197.12 184.55Q196.48 184.29 195.58 183.87Q194.69 183.45 193.69 182.93Q192.70 182.40 191.82 181.93Q190.95 181.46 190.30 181.07Q189.65 180.69 189.48 180.51L189.48 180.51Q190.39 178.20 191.77 175.26Q193.15 172.32 194.80 168.87Q196.44 165.43 198.24 161.49Q200.05 157.55 201.81 153.19Q203.58 148.84 205.21 144.15Q206.84 139.46 208.10 134.49L208.10 134.49Q208.10 134.45 207.64 133.82Q207.19 133.19 206.59 132.42Q206.00 131.65 205.45 131.00Q204.91 130.35 204.74 130.25L204.74 130.25Q204.74 130.04 204.72 129.85Q204.70 129.66 204.70 129.48L204.70 129.48Q204.70 128.99 204.81 128.60Q204.91 128.22 205.26 127.73L205.26 127.73Q206.17 126.47 207.47 125.45Q208.76 124.44 209.99 123.60Q211.21 122.76 212.14 122.08Q213.07 121.39 213.28 120.80L213.28 120.80Q214.89 116.98 217.00 112.50Q219.12 108.03 221.73 103.60Q224.34 99.17 227.42 95.16Q230.50 91.16 233.96 88.25L233.96 88.25L237.57 88.00Q235.71 91.89 233.54 95.58Q231.37 99.28 229.20 103.06Q227.03 106.84 225.05 110.88Q223.08 114.92 221.64 119.47L221.64 119.47Q221.12 121.11 220.59 122.69Q220.07 124.27 219.61 125.75Q219.16 127.24 218.86 128.62Q218.56 130.00 218.53 131.23L218.53 131.23Q219.82 131.44 221.54 131.44L221.54 131.44Q223.01 131.44 224.69 131.19Q226.37 130.95 228.20 130.32Q230.04 129.69 231.98 128.57Q233.93 127.45 235.92 125.70L235.92 125.70"/>
      <path d="M266.23 125.45L269.91 129.16Q269.38 130.50 268.42 131.62Q267.46 132.74 266.25 133.54Q265.04 134.34 263.71 134.78Q262.38 135.22 261.12 135.22L261.12 135.22Q259.48 135.22 258.25 134.45L258.25 134.45Q257.24 136.87 255.92 138.77Q254.61 140.68 252.98 142.24Q251.36 143.80 249.45 145.09Q247.54 146.38 245.41 147.57L245.41 147.57Q245.09 147.75 244.60 147.75L244.60 147.75Q243.80 147.75 242.71 147.26Q241.63 146.77 240.42 146.00Q239.21 145.23 237.99 144.28Q236.76 143.34 235.68 142.43Q234.59 141.52 233.72 140.75Q232.84 139.98 232.35 139.56L232.35 139.56Q232.25 139.03 232.14 138.39Q232.04 137.74 231.97 137.09Q231.90 136.44 231.86 135.88Q231.83 135.32 231.83 135.01L231.83 135.01Q231.83 133.22 232.42 131.34Q233.02 129.44 233.94 127.64Q234.87 125.84 236.01 124.18Q237.15 122.52 238.23 121.22L238.23 121.22Q239.11 120.06 240.59 118.82Q242.08 117.58 243.85 116.58Q245.62 115.59 247.49 114.94Q249.36 114.29 251.01 114.29L251.01 114.29Q252.79 114.29 254.45 115.34Q256.12 116.39 257.41 117.95Q258.71 119.50 259.49 121.29Q260.28 123.08 260.28 124.58L260.28 124.58Q260.28 124.89 260.25 125.30Q260.21 125.70 260.16 126.10Q260.11 126.50 260.02 126.89Q259.93 127.28 259.83 127.52L259.83 127.52Q259.97 127.63 260.05 127.68Q260.14 127.73 260.28 127.78Q260.42 127.84 260.67 127.85Q260.91 127.87 261.40 127.87L261.40 127.87Q261.93 127.87 262.49 127.82Q263.05 127.77 263.66 127.52Q264.27 127.28 264.90 126.78Q265.53 126.30 266.23 125.45L266.23 125.45M250.83 124.09L250.83 124.09Q250.34 123.78 249.85 123.78L249.85 123.78Q249.43 123.78 249.03 123.98Q248.63 124.19 248.31 124.51L248.31 124.51Q247.02 125.88 245.88 127.41Q244.74 128.96 243.90 130.55Q243.06 132.14 242.57 133.72Q242.08 135.29 242.08 136.69L242.08 136.69Q242.08 137.07 242.36 137.32Q242.64 137.56 243.03 137.56L243.03 137.56Q243.59 137.56 244.43 137.07Q245.27 136.59 246.14 135.87Q247.02 135.15 247.84 134.34Q248.66 133.54 249.19 132.91L249.19 132.91Q250.10 131.82 250.80 130.72Q251.50 129.62 252.13 128.40L252.13 128.40Q251.57 127.94 251.30 127.43Q251.04 126.92 250.94 126.38Q250.83 125.84 250.85 125.26Q250.87 124.69 250.83 124.09"/>
      <path d="M277.29 147.47L277.29 147.47Q276.38 147.47 275.00 146.94Q273.62 146.42 272.04 145.58Q270.47 144.74 268.89 143.72Q267.32 142.71 266.06 141.69Q264.80 140.68 263.99 139.81Q263.19 138.93 263.19 138.41L263.19 138.41Q263.19 134.56 263.87 130.78Q264.55 127.00 265.72 123.30Q266.90 119.61 268.45 116.00Q270.01 112.40 271.76 108.92Q273.51 105.44 275.35 102.07Q277.19 98.72 278.90 95.53L278.90 95.53Q279.85 93.78 281.33 91.61Q282.82 89.44 284.69 87.51Q286.57 85.59 288.72 84.29Q290.87 83.00 293.11 83.00L293.11 83.00Q294.02 83.00 295.00 83.66Q295.98 84.33 296.87 85.33Q297.77 86.32 298.57 87.53Q299.38 88.74 299.97 89.84Q300.57 90.94 300.92 91.75Q301.27 92.56 301.27 92.80L301.27 92.80Q301.20 96.47 299.85 100.41Q298.50 104.35 296.30 108.25Q294.09 112.16 291.22 115.86Q288.35 119.58 285.29 122.81Q282.23 126.05 279.18 128.66Q276.14 131.26 273.51 132.94L273.51 132.94Q273.51 133.22 273.65 134.13Q273.79 135.05 274.11 136.03Q274.42 137.00 274.95 137.79Q275.47 138.58 276.21 138.58L276.21 138.58Q277.19 138.58 278.41 137.99Q279.64 137.39 281.02 136.41Q282.40 135.43 283.87 134.13Q285.34 132.84 286.79 131.47Q288.25 130.11 289.68 128.75Q291.12 127.38 292.38 126.22L292.38 126.22Q292.76 125.84 293.18 125.73Q293.60 125.63 293.92 125.63L293.92 125.63Q294.62 125.63 295.00 126.19Q295.39 126.75 295.39 127.52L295.39 127.52Q295.39 128.43 294.84 129.76Q294.30 131.09 293.37 132.66Q292.45 134.24 291.19 135.96Q289.93 137.67 288.49 139.31Q287.06 140.96 285.53 142.43Q284.01 143.90 282.54 145.02Q281.07 146.14 279.72 146.81Q278.38 147.47 277.29 147.47M276.70 122.38L276.70 122.38Q277.99 121.57 279.39 120.33Q280.79 119.09 282.14 117.60Q283.49 116.11 284.78 114.45Q286.08 112.78 287.21 111.10Q288.35 109.42 289.26 107.83Q290.17 106.24 290.77 104.91L290.77 104.91Q291.54 103.19 292.45 101.34Q293.36 99.48 294.16 97.65Q294.97 95.81 295.54 94.01Q296.12 92.20 296.23 90.59L296.23 90.59Q295.88 90.73 295.53 90.81Q295.18 90.88 295.00 91.12L295.00 91.12Q292.59 94.03 290.33 97.28Q288.07 100.53 285.83 104.31Q283.59 108.09 281.26 112.49Q278.94 116.88 276.38 121.99L276.38 121.99Q276.42 122.38 276.70 122.38"/>
      <path d="M302.49 102.18L302.49 102.18Q303.19 102.14 303.89 102.07L303.89 102.07Q304.49 102.04 305.19 102.00Q305.89 101.97 306.48 101.97L306.48 101.97Q307.25 101.97 308.09 102.55Q308.93 103.13 309.63 104.14Q310.33 105.16 310.79 106.52Q311.24 107.88 311.24 109.46L311.24 109.46Q311.24 110.62 310.61 111.40Q309.98 112.19 308.41 112.19L308.41 112.19Q306.90 112.19 305.57 111.75Q304.24 111.31 303.24 110.53Q302.25 109.74 301.67 108.66Q301.09 107.57 301.09 106.31L301.09 106.31Q301.09 105.22 301.46 104.21Q301.83 103.19 302.49 102.18M315.34 125.81L315.34 125.81Q315.83 126.50 316.35 127.06Q316.88 127.63 317.30 128.01Q317.72 128.40 317.98 128.64Q318.24 128.88 318.24 128.96L318.24 128.96Q317.72 130.11 316.58 131.90Q315.44 133.68 313.95 135.71Q312.47 137.74 310.77 139.79Q309.07 141.84 307.43 143.50Q305.78 145.16 304.29 146.19Q302.81 147.22 301.76 147.22L301.76 147.22Q301.09 147.22 300.06 146.93Q299.03 146.63 297.84 146.16Q296.65 145.69 295.44 145.11Q294.23 144.53 293.20 143.95Q292.17 143.38 291.43 142.85Q290.70 142.32 290.45 142.01L290.45 142.01Q289.82 141.10 289.54 139.91Q289.26 138.72 289.26 137.32L289.26 137.32Q289.26 135.50 289.79 133.07Q290.31 130.63 291.20 128.08Q292.10 125.53 293.25 123.04Q294.41 120.56 295.63 118.59Q296.86 116.63 298.08 115.43Q299.31 114.22 300.32 114.22L300.32 114.22Q300.88 114.22 301.51 114.64L301.51 114.64Q302.46 115.34 303.14 116.13Q303.82 116.91 304.31 117.79Q304.80 118.66 305.15 119.64Q305.50 120.63 305.82 121.71L305.82 121.71Q305.22 122.38 304.54 123.48Q303.86 124.58 303.16 125.94Q302.46 127.31 301.81 128.83Q301.16 130.35 300.65 131.88Q300.15 133.40 299.85 134.85Q299.55 136.31 299.55 137.46L299.55 137.46Q299.55 138.41 299.76 139.07L299.76 139.07Q301.51 138.19 303.61 136.57Q305.71 134.94 307.81 133.05Q309.91 131.16 311.87 129.22Q313.83 127.28 315.34 125.81"/>
      <path d="M346.14 125.45L349.81 129.16Q349.29 130.50 348.32 131.62Q347.36 132.74 346.15 133.54Q344.95 134.34 343.62 134.78Q342.29 135.22 341.03 135.22L341.03 135.22Q339.38 135.22 338.16 134.45L338.16 134.45Q337.14 136.87 335.83 138.77Q334.52 140.68 332.89 142.24Q331.26 143.80 329.35 145.09Q327.45 146.38 325.31 147.57L325.31 147.57Q325.00 147.75 324.51 147.75L324.51 147.75Q323.70 147.75 322.62 147.26Q321.53 146.77 320.32 146.00Q319.12 145.23 317.89 144.28Q316.67 143.34 315.58 142.43Q314.50 141.52 313.62 140.75Q312.75 139.98 312.26 139.56L312.26 139.56Q312.15 139.03 312.05 138.39Q311.94 137.74 311.87 137.09Q311.80 136.44 311.77 135.88Q311.73 135.32 311.73 135.01L311.73 135.01Q311.73 133.22 312.33 131.34Q312.92 129.44 313.85 127.64Q314.78 125.84 315.91 124.18Q317.05 122.52 318.14 121.22L318.14 121.22Q319.01 120.06 320.50 118.82Q321.99 117.58 323.75 116.58Q325.52 115.59 327.39 114.94Q329.27 114.29 330.91 114.29L330.91 114.29Q332.70 114.29 334.36 115.34Q336.02 116.39 337.32 117.95Q338.61 119.50 339.40 121.29Q340.19 123.08 340.19 124.58L340.19 124.58Q340.19 124.89 340.15 125.30Q340.12 125.70 340.06 126.10Q340.01 126.50 339.92 126.89Q339.84 127.28 339.73 127.52L339.73 127.52Q339.87 127.63 339.96 127.68Q340.05 127.73 340.19 127.78Q340.33 127.84 340.57 127.85Q340.82 127.87 341.31 127.87L341.31 127.87Q341.83 127.87 342.39 127.82Q342.95 127.77 343.56 127.52Q344.18 127.28 344.81 126.78Q345.44 126.30 346.14 125.45L346.14 125.45M330.74 124.09L330.74 124.09Q330.25 123.78 329.76 123.78L329.76 123.78Q329.34 123.78 328.93 123.98Q328.53 124.19 328.22 124.51L328.22 124.51Q326.92 125.88 325.78 127.41Q324.65 128.96 323.81 130.55Q322.97 132.14 322.48 133.72Q321.99 135.29 321.99 136.69L321.99 136.69Q321.99 137.07 322.27 137.32Q322.55 137.56 322.93 137.56L322.93 137.56Q323.49 137.56 324.33 137.07Q325.17 136.59 326.05 135.87Q326.92 135.15 327.74 134.34Q328.57 133.54 329.09 132.91L329.09 132.91Q330.00 131.82 330.70 130.72Q331.40 129.62 332.03 128.40L332.03 128.40Q331.47 127.94 331.21 127.43Q330.95 126.92 330.84 126.38Q330.74 125.84 330.75 125.26Q330.77 124.69 330.74 124.09"/>
      <path d="M375.68 127.77L374.59 134.24Q371.86 134.52 368.75 134.61Q365.63 134.69 362.57 134.64Q359.51 134.59 356.67 134.40Q353.84 134.21 351.70 133.85L351.70 133.85L351.25 129.03Q354.22 128.60 357.23 128.50Q360.24 128.40 363.29 128.38Q366.33 128.36 369.43 128.27Q372.53 128.19 375.68 127.77L375.68 127.77"/>
      <path d="M381.70 142.78L381.70 142.78Q380.05 139.59 379.51 136.78Q378.97 133.96 379.32 131.49Q379.67 129.03 380.79 126.89Q381.91 124.75 383.59 122.94L383.59 122.94Q386.14 120.20 388.75 118.61Q391.36 117.02 394.05 116.76Q396.75 116.50 399.62 117.72Q402.49 118.94 405.57 121.81L405.57 121.81Q405.95 121.39 406.53 121.08Q407.11 120.77 407.75 120.71Q408.40 120.66 409.10 120.94Q409.80 121.22 410.43 121.95L410.43 121.95Q411.55 123.28 412.15 124.11Q412.74 124.93 412.79 125.72Q412.85 126.50 412.34 127.47Q411.83 128.43 410.78 130.04L410.78 130.04Q408.86 132.91 407.61 135.52Q406.37 138.13 405.78 141.00L405.78 141.00Q405.50 142.29 406.49 142.19Q407.49 142.08 409.28 141.03Q411.06 139.98 413.37 138.21Q415.68 136.44 418.06 134.43Q420.44 132.42 422.63 130.39Q424.82 128.36 426.36 126.75L426.36 126.75Q427.41 127.84 427.86 128.90Q428.32 129.97 428.35 130.95Q428.39 131.93 428.12 132.74Q427.86 133.54 427.51 134.06L427.51 134.06Q424.71 138.27 420.95 141.56Q417.19 144.84 412.74 147.16L412.74 147.16Q410.89 148.13 408.94 148.64Q407.00 149.15 405.15 149.15Q403.29 149.15 401.59 148.66Q399.90 148.17 398.50 147.16L398.50 147.16Q397.66 146.53 397.32 145.86Q396.99 145.19 396.99 144.50Q396.99 143.80 397.20 143.09Q397.41 142.40 397.66 141.69L397.66 141.69Q395.17 143.34 392.49 143.97Q389.82 144.60 387.52 144.55Q385.23 144.50 383.64 143.97Q382.05 143.44 381.70 142.78M398.22 123.14L398.22 123.14Q397.59 123.28 396.69 123.97Q395.80 124.65 394.82 125.68Q393.84 126.72 392.88 127.97Q391.92 129.24 391.11 130.55Q390.31 131.86 389.73 133.12Q389.15 134.38 388.99 135.38Q388.84 136.38 389.17 137.02Q389.50 137.67 390.48 137.74L390.48 137.74Q392.65 137.91 394.59 136.83Q396.54 135.75 398.18 133.96Q399.83 132.18 401.17 129.97Q402.52 127.77 403.47 125.73L403.47 125.73Q403.64 125.35 403.19 124.81Q402.73 124.27 401.94 123.83Q401.16 123.39 400.14 123.16Q399.13 122.94 398.22 123.14"/>
      <path d="M417.43 171.41L409.91 166.58Q410.15 165.99 410.66 164.92Q411.17 163.85 412.04 161.94Q412.92 160.03 414.18 157.15Q415.44 154.26 417.15 150.01Q418.87 145.75 421.12 140.00Q423.38 134.24 426.22 126.64L426.22 126.64Q426.46 125.98 426.85 124.98Q427.23 123.98 427.69 122.81Q428.14 121.64 428.63 120.38Q429.12 119.12 429.56 117.95Q430.00 116.78 430.36 115.76Q430.73 114.75 430.98 114.08L430.98 114.08Q431.36 112.96 432.20 112.54Q433.04 112.12 434.06 112.12L434.06 112.12Q435.07 112.12 436.12 112.37Q437.17 112.61 438.08 112.78L438.08 112.78Q440.29 112.16 442.18 112.16L442.18 112.16Q444.98 112.16 447.09 113.36Q449.21 114.57 450.63 116.53Q452.05 118.49 452.76 120.99Q453.48 123.50 453.48 126.09L453.48 126.09Q453.48 127.87 453.10 129.76Q452.71 131.65 451.85 133.49Q451.00 135.32 449.63 136.99Q448.27 138.65 446.34 139.91L446.34 139.91Q448.55 139.63 450.70 138.47Q452.85 137.32 455.02 135.43Q457.19 133.54 459.40 130.99Q461.60 128.43 463.91 125.35L463.91 125.35Q465.03 125.53 465.77 126.30Q466.50 127.06 466.50 128.43L466.50 128.43Q466.50 129.38 466.10 130.56Q465.70 131.75 464.77 133.22Q463.84 134.69 462.37 136.39Q460.90 138.09 458.77 140.02L458.77 140.02Q455.62 142.85 452.50 144.56Q449.39 146.28 446.59 146.28L446.59 146.28Q445.12 146.28 443.82 145.77Q442.53 145.27 441.41 144.15L441.41 144.15Q439.94 145.06 438.27 145.46Q436.61 145.86 434.90 145.86L434.90 145.86Q433.11 145.86 431.36 145.49Q429.61 145.13 428.00 144.53L428.00 144.53Q425.66 151.53 422.93 158.32Q420.20 165.11 417.43 171.41L417.43 171.41M443.75 131.58L443.75 131.58Q444.31 130.56 444.63 129.31Q444.94 128.05 444.94 126.82L444.94 126.82Q444.94 125.66 444.66 124.63Q444.38 123.60 443.80 122.81Q443.23 122.03 442.30 121.55Q441.37 121.08 440.08 121.08L440.08 121.08Q439.45 121.08 439.04 121.08Q438.64 121.08 438.29 121.13Q437.94 121.19 437.54 121.27Q437.14 121.36 436.51 121.53L436.51 121.53Q435.67 123.81 434.88 125.66Q434.09 127.52 433.36 129.25Q432.62 130.99 431.92 132.75Q431.22 134.52 430.52 136.66L430.52 136.66Q432.31 137.60 434.44 137.60L434.44 137.60Q435.70 137.60 437.00 137.25Q438.29 136.90 439.50 136.16Q440.71 135.43 441.79 134.29Q442.88 133.16 443.75 131.58"/>
      <path d="M473.50 102.18L473.50 102.18Q474.20 102.14 474.90 102.07L474.90 102.07Q475.50 102.04 476.20 102.00Q476.90 101.97 477.49 101.97L477.49 101.97Q478.26 101.97 479.10 102.55Q479.94 103.13 480.64 104.14Q481.34 105.16 481.80 106.52Q482.25 107.88 482.25 109.46L482.25 109.46Q482.25 110.62 481.62 111.40Q480.99 112.19 479.42 112.19L479.42 112.19Q477.91 112.19 476.58 111.75Q475.25 111.31 474.25 110.53Q473.26 109.74 472.68 108.66Q472.10 107.57 472.10 106.31L472.10 106.31Q472.10 105.22 472.47 104.21Q472.84 103.19 473.50 102.18M486.35 125.81L486.35 125.81Q486.84 126.50 487.36 127.06Q487.89 127.63 488.31 128.01Q488.73 128.40 488.99 128.64Q489.25 128.88 489.25 128.96L489.25 128.96Q488.73 130.11 487.59 131.90Q486.45 133.68 484.96 135.71Q483.48 137.74 481.78 139.79Q480.08 141.84 478.44 143.50Q476.79 145.16 475.30 146.19Q473.82 147.22 472.77 147.22L472.77 147.22Q472.10 147.22 471.07 146.93Q470.04 146.63 468.85 146.16Q467.66 145.69 466.45 145.11Q465.24 144.53 464.21 143.95Q463.18 143.38 462.44 142.85Q461.71 142.32 461.46 142.01L461.46 142.01Q460.83 141.10 460.55 139.91Q460.27 138.72 460.27 137.32L460.27 137.32Q460.27 135.50 460.80 133.07Q461.32 130.63 462.21 128.08Q463.11 125.53 464.26 123.04Q465.42 120.56 466.64 118.59Q467.87 116.63 469.09 115.43Q470.32 114.22 471.33 114.22L471.33 114.22Q471.89 114.22 472.52 114.64L472.52 114.64Q473.47 115.34 474.15 116.13Q474.83 116.91 475.32 117.79Q475.81 118.66 476.16 119.64Q476.51 120.63 476.83 121.71L476.83 121.71Q476.23 122.38 475.55 123.48Q474.87 124.58 474.17 125.94Q473.47 127.31 472.82 128.83Q472.17 130.35 471.66 131.88Q471.16 133.40 470.86 134.85Q470.56 136.31 470.56 137.46L470.56 137.46Q470.56 138.41 470.77 139.07L470.77 139.07Q472.52 138.19 474.62 136.57Q476.72 134.94 478.82 133.05Q480.92 131.16 482.88 129.22Q484.84 127.28 486.35 125.81"/>
    </g>
    <mask id="halo" maskUnits="userSpaceOnUse" x="53.05" y="24.90" width="442.60" height="167.91">
      <rect x="53.05" y="24.90" width="442.60" height="167.91" fill="#fff"/>
      <use href="#script" fill="#000" stroke="#000" stroke-width="12" stroke-linejoin="round"/>
    </mask>
  </defs>
  <path d="M86.79 100L67.03 100Q62.52 100 60.98 99.37Q59.45 98.74 59.45 97.38L59.45 39.36Q59.45 35.03 85.53 35.03Q100.51 35.03 106.19 37.92Q111.97 40.89 113.59 45.50Q114.49 48.20 114.49 51.81Q114.49 58.85 112.10 62.37Q109.71 65.89 106.91 66.34Q111.16 67.24 113.95 70.49Q116.75 73.74 116.75 81.50Q116.75 90.53 111.25 94.86Q106.46 98.65 96.63 99.64Q92.48 100 86.79 100M84.63 60.66L86.88 60.66Q91.48 60.66 91.48 54.52Q91.48 51.45 90.27 49.96Q89.05 48.47 87.51 48.47L84.63 48.47L84.63 60.66M84.63 74.37L84.63 86.55L86.88 86.55Q91.48 86.55 91.48 80.42Q91.48 77.35 90.27 75.86Q89.05 74.37 87.51 74.37L84.63 74.37M147.97 95.40Q147.79 98.01 145.22 99.01Q142.65 100 135.97 100Q129.29 100 124.83 98.78Q120.36 97.56 120.36 95.67Q120.36 93.50 128.39 68.01Q136.42 42.52 137.60 38.64Q138.05 37.47 144.86 36.70Q151.67 35.93 159.48 35.93Q167.28 35.93 168.10 38.64Q185.15 95.31 185.15 96.21Q185.15 97.11 184.07 98.01Q181.54 100 174.05 100Q158.08 100 157.72 96.21L157.09 90.34L148.42 90.34L147.97 95.40M150.32 73.20L155.19 73.20L153.84 56.96L151.85 56.96L150.32 73.20M230.36 99.32Q226.75 100.18 223.01 100.50Q219.26 100.81 215.70 100.81Q212.13 100.81 210.19 100.63Q208.25 100.45 205.09 99.73Q201.93 99.01 199.32 97.74Q196.70 96.48 193.77 94.04Q190.84 91.61 188.85 88.27Q184.25 80.51 184.25 68.24Q184.25 60.02 186.82 53.71Q189.39 47.39 193.05 43.96Q196.70 40.53 201.39 38.46Q208.97 35.03 216.64 35.03Q227.65 35.03 232.43 36.83Q234.60 37.65 236.32 39.36Q238.03 41.08 238.03 44.32Q238.03 47.57 236.45 52.54Q234.87 57.50 231.89 57.50Q230.99 57.50 225.22 56.05Q219.44 54.61 217.37 54.61Q214.21 54.61 212 58.13Q209.79 61.65 209.79 68.15Q209.79 74.64 211.73 78.25Q213.67 81.86 216.82 81.86Q219.08 81.86 224.99 80.01Q230.90 78.16 231.89 78.16Q234.69 78.16 236.27 83.31Q237.85 88.45 237.85 91.61Q237.85 94.77 235.91 96.62Q233.97 98.47 230.36 99.32M269.52 97.20Q269.52 98.38 263.97 99.10Q258.42 99.82 252.92 99.82Q247.41 99.82 245.88 99.19Q244.35 98.56 244.35 97.20L244.35 41.89Q244.35 39.54 249.44 37.74Q254.54 35.93 261.22 35.93Q266.72 35.93 268.35 38.10Q269.52 39.63 269.52 40.89L269.52 55.78L270.24 55.78Q270.24 55.33 272.95 48.29Q278.09 35.03 280.44 35.03Q284.86 35.03 292.89 37.65Q296.77 38.91 299.57 41.30Q302.37 43.69 302.37 46.58Q302.37 48.38 298.71 53.57Q295.06 58.76 287.66 67.42Q289.37 69.23 291.99 72.03Q294.61 74.82 298.98 80.37Q303.36 85.92 303.36 88.27Q303.36 90.62 299.12 93.73Q294.88 96.84 290.10 98.78Q285.31 100.72 282.97 100.72Q281.43 100.72 278.77 96.07Q276.11 91.43 272.32 82.13L269.52 85.47L269.52 97.20M354.07 100L315.81 100Q311.39 100 309.86 99.37Q308.32 98.74 308.32 97.38L308.32 40.26Q308.32 37.92 310.44 36.92Q312.57 35.93 318.07 35.93L354.35 35.93Q356.24 35.93 356.24 42.20Q356.24 48.47 355.43 51.77Q354.62 55.06 353.26 55.06Q347.40 55.06 333.50 53.89L333.50 59.93Q346.86 59.39 350.92 59.39Q353.35 59.39 353.35 65.08Q353.35 70.76 352.41 73.70Q351.46 76.63 349.83 76.63L333.50 76.27L333.50 82.04Q349.20 80.87 355.16 80.87Q357.05 80.87 357.05 87.19Q357.05 93.50 356.24 96.75Q355.43 100 354.07 100M388.55 97.38Q388.55 98.56 383 99.28Q377.45 100 371.94 100Q366.44 100 364.90 99.37Q363.37 98.74 363.37 97.38L363.37 41.98Q363.37 39.72 368.56 37.83Q373.75 35.93 380.33 35.93Q382.68 35.93 383.85 36.11Q386.92 36.56 388.18 39.99L396.85 63.27L397.21 63.27L397.21 41.98Q397.21 39.72 402.35 37.83Q407.50 35.93 414.08 35.93Q419.77 35.93 421.30 38.10Q422.38 39.63 422.38 40.89L422.38 97.38Q422.38 98.56 416.83 99.28Q411.29 100 404.65 100Q398.02 100 397.39 98.29L389 76.09L388.55 76.09L388.55 97.38M458.39 100L437.09 100Q432.67 100 431.14 99.37Q429.60 98.74 429.60 97.29L429.60 40.35Q429.60 38.01 431.59 36.97Q433.57 35.93 438.45 35.93L458.75 35.93Q476.08 35.93 482.66 42.74Q489.25 49.56 489.25 67.51Q489.25 85.47 482.39 92.74Q475.53 100 458.39 100M457.67 49.38Q455.50 49.38 454.78 49.74L454.78 86.19L458.21 86.55Q460.92 86.55 462.31 82.22Q463.71 77.89 463.71 67.24Q463.71 56.60 462.27 52.99Q460.83 49.38 457.67 49.38" fill="#C0392B" mask="url(#halo)"/>
  <use href="#script" fill="#F2CC8F"/>
</svg>
